<svg xmlns="http://www.w3.org/2000/svg" xmlns:xlink="http://www.w3.org/1999/xlink" width="500" zoomAndPan="magnify" viewBox="0 0 375 374.999991" height="500" preserveAspectRatio="xMidYMid meet" version="1.0"><defs><g/><clipPath id="538b6d7125"><path d="M 27.101562 260.507812 L 41.210938 260.507812 L 41.210938 274.617188 L 27.101562 274.617188 Z M 27.101562 260.507812 " clip-rule="nonzero"/></clipPath><clipPath id="c9cba665c7"><path d="M 34.15625 260.507812 C 30.261719 260.507812 27.101562 263.667969 27.101562 267.5625 C 27.101562 271.460938 30.261719 274.617188 34.15625 274.617188 C 38.050781 274.617188 41.210938 271.460938 41.210938 267.5625 C 41.210938 263.667969 38.050781 260.507812 34.15625 260.507812 Z M 34.15625 260.507812 " clip-rule="nonzero"/></clipPath><clipPath id="39565e782e"><path d="M 30.445312 267.5625 L 57.453125 267.5625 L 57.453125 294.574219 L 30.445312 294.574219 Z M 30.445312 267.5625 " clip-rule="nonzero"/></clipPath><clipPath id="70881df1dd"><path d="M 43.949219 267.5625 C 36.492188 267.5625 30.445312 273.609375 30.445312 281.066406 C 30.445312 288.527344 36.492188 294.574219 43.949219 294.574219 C 51.410156 294.574219 57.453125 288.527344 57.453125 281.066406 C 57.453125 273.609375 51.410156 267.5625 43.949219 267.5625 Z M 43.949219 267.5625 " clip-rule="nonzero"/></clipPath><clipPath id="793e89a43d"><path d="M 44 288.867188 L 68.429688 288.867188 L 68.429688 304.152344 L 44 304.152344 Z M 44 288.867188 " clip-rule="nonzero"/></clipPath><clipPath id="1cee84dc9c"><path d="M 47.175781 289.875 C 55.199219 291.898438 58.648438 290.398438 59.550781 291.148438 C 60.148438 291.601562 60.300781 293.023438 59.773438 293.699219 C 58.800781 294.976562 50.101562 295.648438 49.5 294.824219 C 49.199219 294.300781 50.324219 292.648438 51.226562 292.199219 C 52.5 291.449219 55.726562 291.523438 56.851562 291.976562 C 57.449219 292.273438 57.75 292.800781 57.976562 293.398438 C 58.125 293.925781 58.199219 294.675781 57.898438 295.125 C 57.601562 295.800781 56.625 296.476562 55.574219 296.773438 C 53.699219 297.148438 47.476562 296.25 47.324219 295.5 C 47.25 294.824219 50.851562 293.023438 52.351562 292.875 C 53.625 292.726562 55.125 293.101562 55.800781 293.625 C 56.324219 294.074219 56.550781 294.75 56.625 295.273438 C 56.625 295.875 56.398438 296.550781 56.101562 297 C 55.726562 297.449219 55.273438 297.75 54.523438 297.976562 C 53.25 298.351562 49.875 298.648438 48.675781 297.898438 C 47.851562 297.449219 47.324219 296.101562 47.324219 295.351562 C 47.324219 294.75 47.699219 294.148438 48.148438 293.773438 C 48.601562 293.324219 49.050781 293.175781 49.875 293.101562 C 51.601562 292.875 56.625 293.476562 58.351562 294.449219 C 59.398438 294.976562 60.074219 295.949219 60.226562 296.625 C 60.375 297.226562 60.148438 297.976562 59.773438 298.425781 C 59.476562 298.875 59.023438 299.175781 58.273438 299.398438 C 56.324219 299.925781 48.976562 300.148438 47.324219 298.949219 C 46.425781 298.273438 46.050781 297 46.273438 296.25 C 46.425781 295.5 47.324219 294.675781 48.375 294.300781 C 50.175781 293.625 54.824219 294.226562 56.925781 294.523438 C 58.125 294.75 59.023438 294.75 59.699219 295.273438 C 60.375 295.726562 60.976562 296.476562 61.125 297.148438 C 61.273438 297.75 61.125 298.425781 60.824219 298.949219 C 60.523438 299.398438 60.148438 299.773438 59.398438 300 C 57.375 300.75 49.648438 301.351562 47.773438 300.601562 C 47.101562 300.300781 46.800781 299.851562 46.574219 299.324219 C 46.351562 298.800781 46.199219 298.050781 46.5 297.523438 C 46.800781 296.851562 47.550781 296.175781 48.75 295.800781 C 51.300781 295.125 60.449219 296.101562 62.25 297.523438 C 63 298.050781 63.226562 299.023438 63.148438 299.699219 C 63 300.375 62.550781 301.199219 61.800781 301.648438 C 60.375 302.398438 56.101562 302.476562 54.601562 302.023438 C 53.851562 301.875 53.398438 301.5 53.101562 301.050781 C 52.800781 300.523438 52.574219 299.851562 52.648438 299.25 C 52.726562 298.648438 53.101562 297.976562 53.476562 297.601562 C 53.925781 297.226562 54.375 297.074219 55.199219 297 C 57.300781 296.773438 64.273438 297.75 66.375 298.875 C 67.425781 299.398438 68.25 300.074219 68.398438 300.824219 C 68.476562 301.574219 67.648438 303 67.050781 303.449219 C 66.523438 303.824219 65.773438 303.898438 65.175781 303.75 C 64.648438 303.601562 63.601562 302.773438 63.601562 302.699219 C 63.675781 302.625 66.675781 303.375 66.675781 303.601562 C 66.675781 303.898438 64.875 304.125 63.523438 304.125 C 61.125 303.976562 55.351562 302.851562 53.476562 301.875 C 52.648438 301.351562 52.273438 300.898438 51.898438 300.300781 C 51.601562 299.773438 51.449219 299.023438 51.523438 298.425781 C 51.601562 297.898438 51.976562 297.148438 52.351562 296.773438 C 52.800781 296.398438 53.550781 296.023438 54.148438 296.101562 C 54.976562 296.25 56.476562 297.300781 56.699219 298.050781 C 57 298.800781 56.699219 300 56.175781 300.523438 C 55.726562 301.125 54.601562 301.574219 53.851562 301.5 C 53.101562 301.351562 52.125 300.675781 51.75 300.074219 C 51.449219 299.398438 51.449219 298.199219 51.75 297.523438 C 52.125 296.925781 53.101562 296.25 53.851562 296.101562 C 54.601562 296.023438 55.726562 296.476562 56.175781 297.074219 C 56.699219 297.601562 56.925781 298.800781 56.699219 299.550781 C 56.550781 300.226562 55.648438 301.050781 54.976562 301.351562 C 54.375 301.574219 53.476562 301.425781 52.875 301.199219 C 52.351562 300.898438 51.824219 300.300781 51.601562 299.699219 C 51.449219 299.175781 51.449219 298.351562 51.675781 297.824219 C 51.898438 297.300781 52.425781 296.699219 52.949219 296.398438 C 53.476562 296.175781 54 296.101562 54.824219 296.175781 C 56.476562 296.398438 59.925781 298.273438 62.25 298.875 C 64.199219 299.324219 67.050781 298.875 67.875 299.625 C 68.398438 300.074219 68.476562 300.824219 68.398438 301.425781 C 68.25 302.101562 67.949219 303.074219 67.050781 303.449219 C 65.101562 304.425781 56.699219 302.851562 54.601562 302.023438 C 53.851562 301.726562 53.398438 301.5 53.101562 301.050781 C 52.800781 300.523438 52.574219 299.851562 52.648438 299.25 C 52.800781 298.574219 53.25 297.75 54 297.300781 C 55.425781 296.476562 59.773438 296.550781 61.199219 296.925781 C 61.949219 297.148438 62.398438 297.523438 62.699219 297.976562 C 63 298.425781 63.226562 299.101562 63.148438 299.699219 C 62.925781 300.449219 62.25 301.425781 61.199219 301.875 C 59.324219 302.699219 54.300781 301.875 51.824219 301.574219 C 50.175781 301.351562 48.75 301.273438 47.773438 300.601562 C 47.023438 300.074219 46.273438 298.949219 46.351562 298.125 C 46.425781 297.375 47.101562 296.476562 48.148438 295.949219 C 50.175781 294.898438 57 294.300781 59.101562 295.050781 C 60.226562 295.5 60.976562 296.398438 61.125 297.148438 C 61.351562 297.824219 60.898438 298.949219 60.449219 299.398438 C 60 299.851562 59.550781 300 58.726562 300.148438 C 56.699219 300.449219 49.726562 300 47.851562 299.175781 C 47.101562 298.875 46.726562 298.5 46.5 298.050781 C 46.199219 297.523438 46.050781 296.773438 46.273438 296.25 C 46.5 295.574219 47.25 294.75 48.375 294.300781 C 50.398438 293.550781 56.476562 293.699219 58.351562 294.449219 C 59.324219 294.824219 59.851562 295.425781 60.148438 296.023438 C 60.375 296.625 60.300781 297.375 60.074219 297.898438 C 59.851562 298.425781 59.476562 298.875 58.875 299.175781 C 57.601562 299.699219 54.523438 299.550781 52.648438 299.25 C 51 298.949219 49.050781 298.351562 48.148438 297.601562 C 47.625 297.148438 47.398438 296.550781 47.324219 295.949219 C 47.25 295.425781 47.398438 294.675781 47.773438 294.226562 C 48.148438 293.699219 48.898438 293.25 49.875 293.101562 C 51.300781 292.800781 54.824219 292.949219 55.800781 293.625 C 56.398438 294.074219 56.550781 294.675781 56.625 295.273438 C 56.625 295.949219 56.324219 297 55.648438 297.449219 C 54.675781 298.125 51.976562 297.898438 50.476562 297.75 C 49.273438 297.601562 48.226562 297.449219 47.25 296.925781 C 46.351562 296.476562 45.148438 295.875 44.851562 294.976562 C 44.550781 294.074219 45.074219 292.199219 45.675781 291.449219 C 46.199219 290.851562 47.023438 290.550781 48.074219 290.398438 C 50.023438 290.175781 55.351562 291.148438 56.851562 291.976562 C 57.449219 292.351562 57.824219 292.800781 57.976562 293.398438 C 58.125 294 57.976562 295.125 57.675781 295.726562 C 57.300781 296.175781 56.773438 296.476562 56.175781 296.699219 C 55.351562 296.925781 54.300781 296.925781 53.175781 296.699219 C 51.523438 296.476562 48.226562 295.875 47.324219 294.75 C 46.648438 293.925781 46.5 292.351562 46.800781 291.523438 C 47.101562 290.773438 47.851562 290.25 48.898438 289.800781 C 51 288.976562 56.851562 288.75 59.324219 288.976562 C 60.75 289.125 61.875 289.273438 62.625 289.875 C 63.300781 290.398438 63.898438 291.300781 63.898438 292.125 C 63.824219 293.023438 63 294.449219 61.800781 295.199219 C 59.925781 296.324219 55.125 296.324219 52.5 296.175781 C 50.550781 296.023438 48.976562 295.574219 47.550781 295.050781 C 46.351562 294.601562 44.851562 294.074219 44.398438 293.25 C 43.949219 292.574219 43.949219 291.300781 44.25 290.699219 C 44.476562 290.175781 45.074219 289.875 45.601562 289.726562 C 46.050781 289.574219 47.175781 289.875 47.175781 289.875 " clip-rule="nonzero"/></clipPath><clipPath id="c38a00013f"><path d="M 70.777344 299.152344 L 71.121094 299.152344 L 71.121094 299.523438 L 70.777344 299.523438 Z M 70.777344 299.152344 " clip-rule="nonzero"/></clipPath><clipPath id="7f81333f22"><path d="M 71.101562 299.175781 C 70.875 299.925781 70.800781 299.175781 70.800781 299.175781 " clip-rule="nonzero"/></clipPath><clipPath id="71fb1407c9"><path d="M 50.210938 300.035156 L 69.121094 300.035156 L 69.121094 306.433594 L 50.210938 306.433594 Z M 50.210938 300.035156 " clip-rule="nonzero"/></clipPath><clipPath id="da2776768c"><path d="M 50.851562 300.074219 C 56.925781 302.398438 60.226562 302.25 60.300781 302.550781 C 60.300781 302.699219 59.773438 303.074219 59.25 303.148438 C 57.824219 303.375 51.523438 302.476562 51.074219 301.800781 C 50.925781 301.648438 51 301.273438 51.148438 301.199219 C 51.75 300.75 57.375 302.175781 57.75 302.851562 C 57.898438 303.074219 57.824219 303.375 57.601562 303.523438 C 57.148438 303.824219 54.976562 303.226562 54 302.925781 C 53.324219 302.773438 52.5 302.625 52.199219 302.25 C 52.050781 302.023438 51.898438 301.5 52.050781 301.351562 C 52.5 300.898438 57 301.425781 57.449219 301.949219 C 57.523438 302.101562 57.523438 302.398438 57.300781 302.550781 C 56.925781 302.925781 54.824219 302.851562 53.699219 302.699219 C 52.648438 302.625 51.074219 302.324219 50.925781 301.949219 C 50.773438 301.800781 50.925781 301.351562 51.148438 301.273438 C 51.75 300.976562 53.699219 302.324219 55.5 302.773438 C 58.425781 303.375 66.75 303.074219 67.050781 303.824219 C 67.125 304.125 66.675781 304.5 66.226562 304.726562 C 65.398438 305.101562 63.375 305.175781 61.800781 305.023438 C 59.851562 304.875 57.074219 304.125 55.648438 303.300781 C 54.75 302.773438 53.625 301.726562 53.773438 301.425781 C 54.148438 300.824219 62.25 302.101562 62.699219 302.851562 C 62.851562 303.074219 62.773438 303.375 62.550781 303.523438 C 62.101562 303.824219 58.726562 303.226562 58.726562 303.148438 C 58.726562 303.148438 60.976562 302.851562 61.574219 303.226562 C 61.949219 303.375 62.476562 304.050781 62.324219 304.199219 C 62.175781 304.574219 58.648438 304.199219 58.273438 303.75 C 58.125 303.601562 58.199219 303.300781 58.425781 303.148438 C 58.949219 302.625 64.125 302.925781 64.574219 303.449219 C 64.726562 303.601562 64.648438 303.976562 64.5 304.125 C 64.125 304.351562 62.101562 304.125 62.101562 304.199219 C 62.101562 304.273438 66.074219 304.125 66.449219 304.574219 C 66.601562 304.726562 66.601562 305.175781 66.449219 305.324219 C 65.699219 305.925781 58.5 304.5 57.898438 303.675781 C 57.75 303.449219 57.824219 303 57.976562 302.851562 C 58.574219 302.476562 62.550781 303.375 62.851562 303.898438 C 63 304.125 62.851562 304.425781 62.625 304.574219 C 62.25 304.875 60.898438 304.5 59.699219 304.273438 C 57.601562 303.898438 51.824219 302.625 51.226562 301.726562 C 51.074219 301.5 51.148438 301.050781 51.300781 300.976562 C 51.601562 300.824219 52.351562 302.175781 53.398438 302.699219 C 55.949219 303.824219 66.300781 303.75 67.125 304.726562 C 67.351562 304.949219 67.273438 305.324219 67.125 305.476562 C 66.824219 305.773438 65.851562 305.699219 64.800781 305.625 C 62.773438 305.476562 57.074219 304.199219 55.5 303.523438 C 54.824219 303.226562 54.375 303 54.300781 302.773438 C 54.226562 302.550781 54.449219 302.25 54.75 302.175781 C 55.574219 301.949219 58.199219 303.675781 60.300781 304.199219 C 62.851562 304.875 68.25 304.726562 68.925781 305.476562 C 69.148438 305.699219 69.148438 306 69 306.148438 C 68.851562 306.375 68.324219 306.300781 67.800781 306.300781 C 66.449219 306.226562 63.226562 305.925781 61.125 305.398438 C 59.023438 304.875 56.773438 303.898438 55.199219 303.074219 C 54 302.476562 52.5 301.726562 52.351562 301.199219 C 52.273438 300.976562 52.5 300.449219 52.574219 300.449219 C 52.726562 300.449219 53.101562 301.050781 53.023438 301.125 C 52.949219 301.273438 52.351562 301.273438 52.273438 301.125 C 52.199219 301.050781 52.425781 300.523438 52.726562 300.449219 C 53.699219 300.148438 58.726562 303.824219 61.648438 304.648438 C 64.125 305.398438 68.851562 305.023438 69.074219 305.625 C 69.148438 305.773438 68.925781 306.148438 68.550781 306.300781 C 67.648438 306.675781 64.351562 305.925781 62.175781 305.476562 C 60 305.023438 56.851562 304.125 55.574219 303.523438 C 54.976562 303.300781 54.375 303 54.300781 302.773438 C 54.226562 302.550781 54.449219 302.25 54.75 302.175781 C 55.875 301.800781 62.699219 304.648438 64.800781 304.875 C 65.851562 304.949219 66.75 304.425781 67.050781 304.726562 C 67.273438 304.800781 67.351562 305.25 67.199219 305.398438 C 66.523438 306.148438 55.5 304.574219 53.023438 303.449219 C 51.976562 302.925781 51.148438 302.101562 51.074219 301.574219 C 51.074219 301.351562 51.375 300.898438 51.449219 300.898438 C 51.449219 300.976562 51.300781 301.800781 51.300781 301.800781 C 51.375 301.800781 51.226562 301.125 51.523438 300.976562 C 52.5 300.375 62.101562 302.851562 62.699219 303.824219 C 62.851562 304.050781 62.773438 304.425781 62.550781 304.574219 C 62.023438 304.949219 58.425781 304.199219 57.898438 303.675781 C 57.675781 303.523438 57.601562 303.148438 57.75 303 C 57.898438 302.773438 58.351562 302.851562 58.949219 302.925781 C 60.375 303 65.925781 303.824219 66.449219 304.574219 C 66.601562 304.800781 66.523438 305.175781 66.300781 305.324219 C 65.773438 305.699219 62.773438 305.023438 61.949219 304.574219 C 61.574219 304.351562 61.125 303.976562 61.199219 303.824219 C 61.351562 303.449219 64.273438 303.148438 64.574219 303.449219 C 64.648438 303.601562 64.574219 303.976562 64.351562 304.125 C 63.75 304.574219 58.800781 304.273438 58.273438 303.75 C 58.125 303.601562 58.125 303.226562 58.273438 303.148438 C 58.574219 302.851562 60.148438 303.148438 60.898438 303.226562 C 61.5 303.300781 62.324219 303.300781 62.476562 303.523438 C 62.625 303.675781 62.550781 304.125 62.324219 304.199219 C 61.875 304.5 58.726562 303.375 58.726562 303.148438 C 58.726562 302.925781 62.398438 302.476562 62.699219 302.851562 C 62.851562 303 62.773438 303.375 62.625 303.523438 C 62.324219 303.75 61.050781 303.449219 60 303.375 C 58.351562 303.148438 54.375 302.773438 53.925781 302.101562 C 53.699219 301.875 53.773438 301.425781 54 301.351562 C 54.675781 300.898438 59.398438 303.898438 61.800781 304.273438 C 63.675781 304.574219 66.824219 303.523438 67.125 303.898438 C 67.199219 304.050781 67.050781 304.425781 66.824219 304.574219 C 65.699219 305.25 56.324219 303.675781 53.851562 303.148438 C 52.800781 302.925781 52.125 302.851562 51.601562 302.476562 C 51.226562 302.175781 50.851562 301.574219 51 301.273438 C 51.300781 300.75 57.074219 301.425781 57.449219 301.949219 C 57.523438 302.101562 57.449219 302.476562 57.226562 302.550781 C 56.773438 302.925781 54.375 302.476562 53.476562 302.324219 C 52.875 302.25 52.125 302.175781 52.050781 302.023438 C 51.976562 301.875 52.199219 301.574219 52.425781 301.5 C 53.175781 301.273438 57.375 302.25 57.75 302.851562 C 57.898438 303.074219 57.824219 303.375 57.675781 303.523438 C 57.449219 303.675781 56.773438 303.523438 56.101562 303.375 C 54.898438 303.148438 51.375 302.398438 51 301.800781 C 50.851562 301.574219 50.925781 301.351562 51.074219 301.199219 C 51.824219 300.675781 59.773438 301.800781 60.300781 302.550781 C 60.375 302.773438 60.300781 303.074219 60.074219 303.226562 C 59.699219 303.523438 58.273438 303.226562 57.226562 303 C 55.875 302.851562 53.851562 302.324219 52.648438 301.949219 C 51.898438 301.726562 51.226562 301.5 50.851562 301.199219 C 50.550781 300.976562 50.175781 300.449219 50.25 300.300781 C 50.25 300.148438 50.851562 300.074219 50.851562 300.074219 " clip-rule="nonzero"/></clipPath></defs><rect x="-37.5" width="450" fill="#ffffff" y="-37.499999" height="449.999989" fill-opacity="1"/><rect x="-37.5" width="450" fill="#ffffff" y="-37.499999" height="449.999989" fill-opacity="1"/><g fill="#f6c0e2" fill-opacity="1"><g transform="translate(92.108702, 235.080365)"><g><path d="M -40.359375 86.890625 C -57.566406 82.710938 -69.851562 75.578125 -77.21875 65.484375 C -84.789062 55.441406 -86.734375 42.832031 -83.046875 27.65625 C -82.191406 24.113281 -81.128906 20.847656 -79.859375 17.859375 C -78.628906 14.222656 -77.023438 11.550781 -75.046875 9.84375 C -73.066406 8.144531 -70.765625 7.035156 -68.140625 6.515625 C -65.617188 6.046875 -62.789062 6.054688 -59.65625 6.546875 C -56.519531 7.046875 -53.078125 7.703125 -49.328125 8.515625 C -46.703125 9.066406 -43.675781 9.644531 -40.25 10.25 C -36.832031 10.851562 -33.328125 11.101562 -29.734375 11 C -26.035156 10.914062 -22.320312 10.273438 -18.59375 9.078125 C -14.875 7.890625 -11.320312 5.832031 -7.9375 2.90625 C -4.539062 -0.03125 -1.40625 -4.023438 1.46875 -9.078125 C 4.34375 -14.140625 6.734375 -20.59375 8.640625 -28.4375 L 9.5625 -32.234375 C 14.40625 -53.640625 18.742188 -72.984375 22.578125 -90.265625 C 26.410156 -107.554688 29.742188 -122.601562 32.578125 -135.40625 L 20.859375 -137.84375 L 38.296875 -199.75 L 74.9375 -191.828125 L 85.28125 -189.703125 C 89.101562 -188.941406 93.117188 -188.140625 97.328125 -187.296875 C 101.546875 -186.460938 105.867188 -185.597656 110.296875 -184.703125 C 112.515625 -184.253906 114.6875 -183.8125 116.8125 -183.375 C 118.9375 -182.945312 121.023438 -182.535156 123.078125 -182.140625 L 152.953125 -176.109375 C 151.441406 -168.078125 149.820312 -159.671875 148.09375 -150.890625 C 146.375 -142.109375 144.535156 -132.957031 142.578125 -123.4375 C 141.785156 -119.425781 140.925781 -115.234375 140 -110.859375 C 139.070312 -106.484375 138.117188 -101.921875 137.140625 -97.171875 C 135.191406 -87.640625 133.078125 -77.632812 130.796875 -67.15625 C 128.523438 -56.6875 126.148438 -45.773438 123.671875 -34.421875 C 122.453125 -28.722656 121.1875 -22.972656 119.875 -17.171875 C 118.5625 -11.378906 117.21875 -5.484375 115.84375 0.515625 C 115.757812 0.847656 115.675781 1.1875 115.59375 1.53125 C 115.507812 1.875 115.460938 2.265625 115.453125 2.703125 L 114.90625 4.984375 C 111.707031 18.140625 106.988281 29.5625 100.75 39.25 C 94.519531 48.945312 87.285156 57.171875 79.046875 63.921875 C 70.796875 70.648438 61.816406 76.003906 52.109375 79.984375 C 42.398438 83.972656 32.503906 86.847656 22.421875 88.609375 C 12.253906 90.421875 2.140625 91.175781 -7.921875 90.875 C -17.984375 90.582031 -27.441406 89.546875 -36.296875 87.765625 L -38.3125 87.28125 C -38.675781 87.269531 -39.023438 87.222656 -39.359375 87.140625 C -39.691406 87.054688 -40.023438 86.972656 -40.359375 86.890625 Z M -36.0625 69.1875 C -35.726562 69.269531 -35.414062 69.347656 -35.125 69.421875 C -34.832031 69.492188 -34.507812 69.523438 -34.15625 69.515625 L -32.375 69.9375 C -24.789062 71.425781 -16.660156 72.242188 -7.984375 72.390625 C 0.679688 72.535156 9.390625 71.878906 18.140625 70.421875 C 26.804688 68.867188 35.316406 66.425781 43.671875 63.09375 C 52.035156 59.757812 59.753906 55.289062 66.828125 49.6875 C 73.816406 44.070312 79.96875 37.21875 85.28125 29.125 C 90.59375 21.039062 94.566406 11.5625 97.203125 0.6875 L 97.71875 -1.46875 C 97.726562 -1.914062 97.773438 -2.304688 97.859375 -2.640625 C 97.941406 -2.972656 98.023438 -3.3125 98.109375 -3.65625 C 103.566406 -27.59375 108.453125 -49.28125 112.765625 -68.71875 C 117.078125 -88.164062 120.753906 -104.890625 123.796875 -118.890625 C 125.609375 -127.097656 127.257812 -134.835938 128.75 -142.109375 C 130.25 -149.390625 131.695312 -156.253906 133.09375 -162.703125 C 129.59375 -163.367188 126.0625 -164 122.5 -164.59375 C 118.945312 -165.195312 115.421875 -165.832031 111.921875 -166.5 C 110.460938 -166.757812 108.941406 -167.035156 107.359375 -167.328125 C 105.773438 -167.628906 104.175781 -167.929688 102.5625 -168.234375 C 99.207031 -168.773438 95.882812 -169.332031 92.59375 -169.90625 C 89.300781 -170.488281 86.078125 -171.070312 82.921875 -171.65625 C 79.742188 -172.25 76.539062 -172.890625 73.3125 -173.578125 C 70.09375 -174.273438 66.613281 -174.988281 62.875 -175.71875 L 51.125 -178.171875 L 43.765625 -151.6875 L 54.484375 -149.484375 C 51.691406 -136.859375 48.023438 -120.363281 43.484375 -100 C 38.941406 -79.632812 33.554688 -55.703125 27.328125 -28.203125 L 26.34375 -24.140625 C 23.71875 -13.347656 20.429688 -4.503906 16.484375 2.390625 C 12.546875 9.285156 8.265625 14.722656 3.640625 18.703125 C -1.085938 22.722656 -6.03125 25.515625 -11.1875 27.078125 C -16.34375 28.640625 -21.429688 29.484375 -26.453125 29.609375 C -31.515625 29.804688 -36.359375 29.5 -40.984375 28.6875 C -45.609375 27.875 -49.75 27.078125 -53.40625 26.296875 C -54.757812 26.046875 -56.003906 25.78125 -57.140625 25.5 C -58.273438 25.226562 -59.265625 24.992188 -60.109375 24.796875 C -61.898438 24.441406 -62.828125 24.390625 -62.890625 24.640625 C -63.421875 26.035156 -63.894531 27.328125 -64.3125 28.515625 C -64.738281 29.703125 -65.082031 30.847656 -65.34375 31.953125 C -67.632812 41.398438 -66.21875 49.265625 -61.09375 55.546875 C -55.96875 61.835938 -47.625 66.382812 -36.0625 69.1875 Z M -36.0625 69.1875 "/></g></g></g><g clip-path="url(#538b6d7125)"><g clip-path="url(#c9cba665c7)"><path fill="#ffffff" d="M 27.101562 260.507812 L 41.210938 260.507812 L 41.210938 274.617188 L 27.101562 274.617188 Z M 27.101562 260.507812 " fill-opacity="1" fill-rule="nonzero"/></g></g><g fill="#f6c0e2" fill-opacity="1"><g transform="translate(198.05525, 219.413774)"><g><path d="M 68.53125 32.71875 C 61.09375 30.914062 54.820312 28.898438 49.71875 26.671875 C 44.625 24.453125 40.4375 21.890625 37.15625 18.984375 C 33.90625 16.097656 31.472656 12.8125 29.859375 9.125 C 28.242188 5.4375 27.285156 1.285156 26.984375 -3.328125 C 26.617188 -8.035156 26.804688 -13.25 27.546875 -18.96875 C 28.296875 -24.6875 29.394531 -31.070312 30.84375 -38.125 L 30.796875 -37.9375 C 30.972656 -38.976562 31.1875 -40.09375 31.4375 -41.28125 C 31.695312 -42.476562 31.984375 -43.71875 32.296875 -45 L 34.203125 -52.890625 C 34.660156 -54.742188 35.085938 -56.488281 35.484375 -58.125 C 35.878906 -59.757812 36.25 -61.28125 36.59375 -62.6875 C 36.9375 -64.09375 37.265625 -65.453125 37.578125 -66.765625 C 37.898438 -68.085938 38.25 -69.390625 38.625 -70.671875 C 39 -71.921875 39.347656 -73.203125 39.671875 -74.515625 C 39.992188 -75.835938 40.347656 -77.164062 40.734375 -78.5 L 43.203125 -87.453125 L 17.34375 -91.609375 L 26.921875 -146.203125 C 34.441406 -145.867188 42.148438 -145.335938 50.046875 -144.609375 C 57.953125 -143.878906 65.890625 -142.988281 73.859375 -141.9375 C 81.722656 -140.84375 89.503906 -139.582031 97.203125 -138.15625 C 104.910156 -136.726562 112.285156 -135.160156 119.328125 -133.453125 C 121.003906 -133.046875 122.59375 -132.660156 124.09375 -132.296875 C 125.601562 -131.929688 127.003906 -131.625 128.296875 -131.375 C 130.921875 -130.738281 133.414062 -130.113281 135.78125 -129.5 C 138.15625 -128.894531 140.484375 -128.242188 142.765625 -127.546875 C 143.898438 -127.210938 145.070312 -126.8125 146.28125 -126.34375 C 147.5 -125.875 148.796875 -125.410156 150.171875 -124.953125 L 150.078125 -124.984375 C 154.054688 -123.523438 157.398438 -121.519531 160.109375 -118.96875 C 162.828125 -116.414062 164.898438 -113.472656 166.328125 -110.140625 C 167.773438 -106.867188 168.597656 -103.273438 168.796875 -99.359375 C 169.003906 -95.441406 168.617188 -91.460938 167.640625 -87.421875 C 167.179688 -85.554688 166.492188 -83.582031 165.578125 -81.5 C 164.671875 -79.425781 163.492188 -77.375 162.046875 -75.34375 C 160.609375 -73.300781 158.898438 -71.429688 156.921875 -69.734375 C 154.953125 -68.046875 152.664062 -66.707031 150.0625 -65.71875 C 147.425781 -64.664062 144.472656 -64.054688 141.203125 -63.890625 C 137.941406 -63.734375 134.296875 -64.179688 130.265625 -65.234375 L 128.53125 -65.640625 C 127.894531 -65.796875 127.257812 -65.96875 126.625 -66.15625 C 126 -66.34375 125.4375 -66.53125 124.9375 -66.71875 C 124.695312 -66.851562 124.460938 -66.945312 124.234375 -67 C 124.015625 -67.0625 123.847656 -67.132812 123.734375 -67.21875 C 122.242188 -61.070312 120.707031 -54.535156 119.125 -47.609375 C 117.550781 -40.691406 116.097656 -33.664062 114.765625 -26.53125 C 113.460938 -19.445312 112.320312 -12.359375 111.34375 -5.265625 C 110.375 1.828125 109.726562 8.5625 109.40625 14.9375 C 109.25 18.09375 108.457031 20.785156 107.03125 23.015625 C 105.613281 25.242188 103.738281 27.097656 101.40625 28.578125 C 99.144531 30.066406 96.554688 31.21875 93.640625 32.03125 C 90.722656 32.851562 87.769531 33.410156 84.78125 33.703125 C 81.800781 33.992188 78.890625 34.035156 76.046875 33.828125 C 73.210938 33.617188 70.707031 33.25 68.53125 32.71875 Z M 71.796875 19.25 C 74.484375 19.90625 77.171875 20.21875 79.859375 20.1875 C 82.546875 20.15625 85.015625 19.875 87.265625 19.34375 C 89.472656 18.863281 91.328125 18.191406 92.828125 17.328125 C 94.328125 16.472656 95.203125 15.535156 95.453125 14.515625 L 95.546875 14.125 C 96.015625 7.175781 96.796875 -0.164062 97.890625 -7.90625 C 98.992188 -15.65625 100.269531 -23.359375 101.71875 -31.015625 C 103.1875 -38.742188 104.722656 -46.28125 106.328125 -53.625 C 107.941406 -60.96875 109.507812 -67.78125 111.03125 -74.0625 L 113.71875 -85.125 C 114.800781 -84.789062 115.785156 -84.5 116.671875 -84.25 C 117.554688 -84.007812 118.351562 -83.804688 119.0625 -83.640625 L 122.90625 -82.703125 C 123.988281 -82.429688 125.050781 -82.132812 126.09375 -81.8125 C 127.144531 -81.488281 128.414062 -81.039062 129.90625 -80.46875 C 131.332031 -79.925781 132.585938 -79.523438 133.671875 -79.265625 C 136.753906 -78.515625 139.476562 -78.410156 141.84375 -78.953125 C 144.21875 -79.492188 146.265625 -80.375 147.984375 -81.59375 C 149.640625 -82.820312 150.988281 -84.257812 152.03125 -85.90625 C 153.082031 -87.5625 153.796875 -89.15625 154.171875 -90.6875 C 155.316406 -95.4375 155.179688 -99.78125 153.765625 -103.71875 C 152.347656 -107.65625 149.554688 -110.40625 145.390625 -111.96875 C 142.835938 -112.925781 140.503906 -113.726562 138.390625 -114.375 C 136.273438 -115.019531 134.097656 -115.648438 131.859375 -116.265625 L 124.734375 -117.984375 C 123.515625 -118.222656 122.179688 -118.515625 120.734375 -118.859375 C 119.296875 -119.210938 117.738281 -119.59375 116.0625 -120 C 109.46875 -121.601562 102.78125 -123.070312 96 -124.40625 C 89.226562 -125.75 82.539062 -126.910156 75.9375 -127.890625 C 62.382812 -129.960938 49.941406 -131.285156 38.609375 -131.859375 L 36.078125 -117.59375 C 35.648438 -115.34375 35.210938 -113.007812 34.765625 -110.59375 C 34.328125 -108.1875 33.863281 -105.722656 33.375 -103.203125 L 40.546875 -102.0625 C 41.648438 -101.851562 42.773438 -101.660156 43.921875 -101.484375 C 45.066406 -101.316406 46.195312 -101.132812 47.3125 -100.9375 C 51.613281 -100.226562 56.050781 -99.359375 60.625 -98.328125 C 59.65625 -94.890625 58.625 -91.144531 57.53125 -87.09375 C 56.445312 -83.039062 55.316406 -78.851562 54.140625 -74.53125 C 53.035156 -70.25 51.90625 -65.9375 50.75 -61.59375 C 49.59375 -57.257812 48.539062 -53.140625 47.59375 -49.234375 C 45.84375 -42.054688 44.367188 -35.585938 43.171875 -29.828125 C 41.984375 -24.078125 41.28125 -18.925781 41.0625 -14.375 C 40.820312 -9.757812 41.140625 -5.691406 42.015625 -2.171875 C 42.898438 1.335938 44.546875 4.4375 46.953125 7.125 C 51.523438 12.300781 59.804688 16.34375 71.796875 19.25 Z M 71.796875 19.25 "/></g></g></g><g clip-path="url(#39565e782e)"><g clip-path="url(#70881df1dd)"><path fill="#ffffff" d="M 30.445312 267.5625 L 57.453125 267.5625 L 57.453125 294.574219 L 30.445312 294.574219 Z M 30.445312 267.5625 " fill-opacity="1" fill-rule="nonzero"/></g></g><g clip-path="url(#793e89a43d)"><g clip-path="url(#1cee84dc9c)"><path fill="#ffffff" d="M 41.25 285.976562 L 71.40625 285.976562 L 71.40625 307.125 L 41.25 307.125 Z M 41.25 285.976562 " fill-opacity="1" fill-rule="nonzero"/></g></g><g clip-path="url(#c38a00013f)"><g clip-path="url(#7f81333f22)"><path fill="#ffffff" d="M 67.800781 296.175781 L 74.101562 296.175781 L 74.101562 302.992188 L 67.800781 302.992188 Z M 67.800781 296.175781 " fill-opacity="1" fill-rule="nonzero"/></g></g><g clip-path="url(#71fb1407c9)"><g clip-path="url(#da2776768c)"><path fill="#ffffff" d="M 47.25 297.074219 L 72.128906 297.074219 L 72.128906 309.300781 L 47.25 309.300781 Z M 47.25 297.074219 " fill-opacity="1" fill-rule="nonzero"/></g></g><g fill="#ffffff" fill-opacity="1"><g transform="translate(93.698896, 219.477084)"><g><path d="M -37.328125 80.359375 C -53.222656 76.492188 -64.582031 69.894531 -71.40625 60.5625 C -78.394531 51.269531 -80.1875 39.609375 -76.78125 25.578125 C -75.988281 22.304688 -75.007812 19.285156 -73.84375 16.515625 C -72.695312 13.148438 -71.210938 10.675781 -69.390625 9.09375 C -67.566406 7.519531 -65.4375 6.492188 -63 6.015625 C -60.664062 5.578125 -58.050781 5.585938 -55.15625 6.046875 C -52.257812 6.515625 -49.082031 7.125 -45.625 7.875 C -43.1875 8.382812 -40.382812 8.914062 -37.21875 9.46875 C -34.050781 10.03125 -30.804688 10.257812 -27.484375 10.15625 C -24.078125 10.09375 -20.648438 9.503906 -17.203125 8.390625 C -13.765625 7.285156 -10.472656 5.378906 -7.328125 2.671875 C -4.203125 -0.0351562 -1.3125 -3.726562 1.34375 -8.40625 C 4.007812 -13.082031 6.222656 -19.039062 7.984375 -26.28125 L 8.84375 -29.796875 C 13.3125 -49.609375 17.320312 -67.5 20.875 -83.46875 C 24.425781 -99.445312 27.507812 -113.351562 30.125 -125.1875 L 19.28125 -127.453125 L 35.421875 -184.71875 L 69.296875 -177.359375 L 78.84375 -175.421875 C 82.394531 -174.710938 86.117188 -173.96875 90.015625 -173.1875 C 93.910156 -172.40625 97.90625 -171.609375 102 -170.796875 C 104.039062 -170.378906 106.046875 -169.972656 108.015625 -169.578125 C 109.984375 -169.179688 111.914062 -168.796875 113.8125 -168.421875 L 141.421875 -162.828125 C 140.035156 -155.398438 138.539062 -147.628906 136.9375 -139.515625 C 135.34375 -131.398438 133.644531 -122.945312 131.84375 -114.15625 C 131.113281 -110.445312 130.316406 -106.566406 129.453125 -102.515625 C 128.597656 -98.472656 127.71875 -94.25 126.8125 -89.84375 C 125 -81.039062 123.039062 -71.796875 120.9375 -62.109375 C 118.84375 -52.421875 116.648438 -42.320312 114.359375 -31.8125 C 113.234375 -26.5625 112.0625 -21.253906 110.84375 -15.890625 C 109.625 -10.523438 108.382812 -5.066406 107.125 0.484375 C 107.050781 0.796875 106.972656 1.109375 106.890625 1.421875 C 106.816406 1.734375 106.773438 2.09375 106.765625 2.5 L 106.265625 4.609375 C 103.304688 16.765625 98.941406 27.328125 93.171875 36.296875 C 87.398438 45.265625 80.707031 52.863281 73.09375 59.09375 C 65.476562 65.332031 57.175781 70.289062 48.1875 73.96875 C 39.195312 77.65625 30.046875 80.3125 20.734375 81.9375 C 11.328125 83.625 1.972656 84.320312 -7.328125 84.03125 C -16.628906 83.75 -25.375 82.785156 -33.5625 81.140625 L -35.421875 80.6875 C -35.753906 80.6875 -36.078125 80.648438 -36.390625 80.578125 C -36.703125 80.503906 -37.015625 80.429688 -37.328125 80.359375 Z M -33.359375 64 C -33.046875 64.070312 -32.75 64.140625 -32.46875 64.203125 C -32.195312 64.273438 -31.898438 64.304688 -31.578125 64.296875 L -29.9375 64.6875 C -22.914062 66.0625 -15.394531 66.8125 -7.375 66.9375 C 0.632812 67.0625 8.6875 66.457031 16.78125 65.125 C 24.800781 63.6875 32.671875 61.425781 40.390625 58.34375 C 48.117188 55.269531 55.253906 51.144531 61.796875 45.96875 C 68.253906 40.75 73.9375 34.398438 78.84375 26.921875 C 83.75 19.453125 87.425781 10.6875 89.875 0.625 L 90.34375 -1.359375 C 90.375 -1.765625 90.425781 -2.117188 90.5 -2.421875 C 90.570312 -2.734375 90.644531 -3.046875 90.71875 -3.359375 C 95.757812 -25.515625 100.273438 -45.578125 104.265625 -63.546875 C 108.265625 -81.523438 111.671875 -96.984375 114.484375 -109.921875 C 116.148438 -117.523438 117.675781 -124.6875 119.0625 -131.40625 C 120.445312 -138.132812 121.78125 -144.476562 123.0625 -150.4375 C 119.832031 -151.0625 116.570312 -151.648438 113.28125 -152.203125 C 109.988281 -152.753906 106.722656 -153.335938 103.484375 -153.953125 C 102.140625 -154.203125 100.738281 -154.457031 99.28125 -154.71875 C 97.820312 -154.988281 96.34375 -155.269531 94.84375 -155.5625 C 91.726562 -156.0625 88.644531 -156.578125 85.59375 -157.109375 C 82.550781 -157.640625 79.570312 -158.179688 76.65625 -158.734375 C 73.726562 -159.273438 70.773438 -159.867188 67.796875 -160.515625 C 64.816406 -161.160156 61.59375 -161.816406 58.125 -162.484375 L 47.265625 -164.75 L 40.484375 -140.265625 L 50.375 -138.234375 C 47.800781 -126.546875 44.410156 -111.285156 40.203125 -92.453125 C 36.003906 -73.628906 31.023438 -51.5 25.265625 -26.0625 L 24.359375 -22.3125 C 21.941406 -12.332031 18.90625 -4.160156 15.25 2.203125 C 11.601562 8.578125 7.644531 13.601562 3.375 17.28125 C -1.007812 21 -5.582031 23.582031 -10.34375 25.03125 C -15.113281 26.476562 -19.828125 27.265625 -24.484375 27.390625 C -29.148438 27.566406 -33.617188 27.28125 -37.890625 26.53125 C -42.160156 25.789062 -45.984375 25.050781 -49.359375 24.3125 C -50.628906 24.070312 -51.789062 23.820312 -52.84375 23.5625 C -53.894531 23.3125 -54.8125 23.09375 -55.59375 22.90625 C -57.25 22.59375 -58.101562 22.550781 -58.15625 22.78125 C -58.632812 24.070312 -59.070312 25.269531 -59.46875 26.375 C -59.863281 27.476562 -60.179688 28.535156 -60.421875 29.546875 C -62.546875 38.273438 -61.234375 45.550781 -56.484375 51.375 C -51.742188 57.195312 -44.035156 61.40625 -33.359375 64 Z M -33.359375 64 "/></g></g></g><g fill="#ffffff" fill-opacity="1"><g transform="translate(219.008174, 209.65753)"><g><path d="M 60.3125 28.78125 C 53.757812 27.1875 48.238281 25.414062 43.75 23.46875 C 39.257812 21.519531 35.570312 19.269531 32.6875 16.71875 C 29.832031 14.15625 27.691406 11.253906 26.265625 8.015625 C 24.835938 4.785156 24 1.132812 23.75 -2.9375 C 23.425781 -7.0625 23.59375 -11.644531 24.25 -16.6875 C 24.90625 -21.726562 25.867188 -27.351562 27.140625 -33.5625 L 27.09375 -33.390625 C 27.257812 -34.296875 27.453125 -35.273438 27.671875 -36.328125 C 27.898438 -37.390625 28.148438 -38.476562 28.421875 -39.59375 L 30.109375 -46.546875 C 30.503906 -48.179688 30.875 -49.71875 31.21875 -51.15625 C 31.570312 -52.59375 31.898438 -53.925781 32.203125 -55.15625 C 32.503906 -56.40625 32.789062 -57.609375 33.0625 -58.765625 C 33.34375 -59.921875 33.65625 -61.054688 34 -62.171875 C 34.320312 -63.285156 34.625 -64.421875 34.90625 -65.578125 C 35.1875 -66.742188 35.503906 -67.910156 35.859375 -69.078125 L 38.03125 -76.96875 L 15.28125 -80.609375 L 23.6875 -128.625 C 30.3125 -128.34375 37.097656 -127.878906 44.046875 -127.234375 C 50.992188 -126.597656 57.96875 -125.816406 64.96875 -124.890625 C 71.90625 -123.921875 78.757812 -122.804688 85.53125 -121.546875 C 92.3125 -120.296875 98.804688 -118.921875 105.015625 -117.421875 C 106.484375 -117.066406 107.875 -116.726562 109.1875 -116.40625 C 110.507812 -116.082031 111.742188 -115.8125 112.890625 -115.59375 C 115.203125 -115.03125 117.398438 -114.484375 119.484375 -113.953125 C 121.566406 -113.421875 123.601562 -112.851562 125.59375 -112.25 C 126.613281 -111.945312 127.648438 -111.585938 128.703125 -111.171875 C 129.765625 -110.765625 130.910156 -110.351562 132.140625 -109.9375 L 132.046875 -109.96875 C 135.554688 -108.695312 138.503906 -106.9375 140.890625 -104.6875 C 143.273438 -102.4375 145.09375 -99.847656 146.34375 -96.921875 C 147.601562 -94.023438 148.328125 -90.851562 148.515625 -87.40625 C 148.703125 -83.96875 148.363281 -80.472656 147.5 -76.921875 C 147.101562 -75.285156 146.5 -73.546875 145.6875 -71.703125 C 144.882812 -69.859375 143.847656 -68.050781 142.578125 -66.28125 C 141.304688 -64.488281 139.800781 -62.851562 138.0625 -61.375 C 136.332031 -59.894531 134.320312 -58.710938 132.03125 -57.828125 C 129.707031 -56.890625 127.109375 -56.351562 124.234375 -56.21875 C 121.359375 -56.082031 118.148438 -56.46875 114.609375 -57.375 L 113.09375 -57.75 C 112.53125 -57.882812 111.972656 -58.035156 111.421875 -58.203125 C 110.867188 -58.367188 110.367188 -58.535156 109.921875 -58.703125 C 109.710938 -58.816406 109.507812 -58.894531 109.3125 -58.9375 C 109.113281 -58.988281 108.96875 -59.0625 108.875 -59.15625 C 107.5625 -53.738281 106.207031 -47.988281 104.8125 -41.90625 C 103.425781 -35.820312 102.15625 -29.632812 101 -23.34375 C 99.832031 -17.101562 98.820312 -10.863281 97.96875 -4.625 C 97.113281 1.613281 96.539062 7.535156 96.25 13.140625 C 96.113281 15.921875 95.414062 18.289062 94.15625 20.25 C 92.90625 22.21875 91.265625 23.847656 89.234375 25.140625 C 87.234375 26.441406 84.953125 27.453125 82.390625 28.171875 C 79.828125 28.898438 77.222656 29.394531 74.578125 29.65625 C 71.960938 29.90625 69.410156 29.9375 66.921875 29.75 C 64.429688 29.5625 62.226562 29.238281 60.3125 28.78125 Z M 63.171875 16.9375 C 65.535156 17.507812 67.898438 17.785156 70.265625 17.765625 C 72.640625 17.742188 74.8125 17.5 76.78125 17.03125 C 78.71875 16.59375 80.347656 16 81.671875 15.25 C 82.992188 14.5 83.765625 13.664062 83.984375 12.75 L 84.0625 12.421875 C 84.46875 6.304688 85.15625 -0.15625 86.125 -6.96875 C 87.101562 -13.789062 88.226562 -20.566406 89.5 -27.296875 C 90.789062 -34.078125 92.144531 -40.703125 93.5625 -47.171875 C 94.976562 -53.640625 96.351562 -59.640625 97.6875 -65.171875 L 100.046875 -74.890625 C 101.003906 -74.609375 101.875 -74.351562 102.65625 -74.125 C 103.4375 -73.90625 104.140625 -73.722656 104.765625 -73.578125 L 108.140625 -72.75 C 109.109375 -72.519531 110.046875 -72.265625 110.953125 -71.984375 C 111.867188 -71.703125 112.984375 -71.3125 114.296875 -70.8125 C 115.546875 -70.34375 116.648438 -69.988281 117.609375 -69.75 C 120.328125 -69.09375 122.726562 -69 124.8125 -69.46875 C 126.894531 -69.945312 128.691406 -70.722656 130.203125 -71.796875 C 131.671875 -72.867188 132.863281 -74.128906 133.78125 -75.578125 C 134.695312 -77.035156 135.320312 -78.441406 135.65625 -79.796875 C 136.664062 -83.972656 136.546875 -87.789062 135.296875 -91.25 C 134.046875 -94.71875 131.582031 -97.140625 127.90625 -98.515625 C 125.664062 -99.347656 123.613281 -100.050781 121.75 -100.625 C 119.894531 -101.195312 117.988281 -101.75 116.03125 -102.28125 L 109.765625 -103.8125 C 108.679688 -104.019531 107.503906 -104.273438 106.234375 -104.578125 C 104.972656 -104.890625 103.609375 -105.222656 102.140625 -105.578125 C 96.328125 -106.984375 90.441406 -108.273438 84.484375 -109.453125 C 78.523438 -110.628906 72.632812 -111.65625 66.8125 -112.53125 C 54.882812 -114.351562 43.9375 -115.519531 33.96875 -116.03125 L 31.734375 -103.484375 C 31.367188 -101.472656 30.988281 -99.410156 30.59375 -97.296875 C 30.195312 -95.191406 29.789062 -93.019531 29.375 -90.78125 L 35.6875 -89.796875 C 36.644531 -89.617188 37.625 -89.453125 38.625 -89.296875 C 39.632812 -89.148438 40.632812 -88.988281 41.625 -88.8125 C 45.40625 -88.195312 49.304688 -87.425781 53.328125 -86.5 C 52.472656 -83.476562 51.570312 -80.1875 50.625 -76.625 C 49.675781 -73.070312 48.675781 -69.394531 47.625 -65.59375 C 46.65625 -61.8125 45.660156 -58.015625 44.640625 -54.203125 C 43.628906 -50.398438 42.703125 -46.773438 41.859375 -43.328125 C 40.328125 -37.015625 39.035156 -31.328125 37.984375 -26.265625 C 36.941406 -21.203125 36.320312 -16.660156 36.125 -12.640625 C 35.914062 -8.566406 36.195312 -4.988281 36.96875 -1.90625 C 37.75 1.164062 39.195312 3.890625 41.3125 6.265625 C 45.332031 10.816406 52.617188 14.375 63.171875 16.9375 Z M 63.171875 16.9375 "/></g></g></g></svg>